<svg xmlns="http://www.w3.org/2000/svg" viewBox="0 0 21 21" width="21" height="21">
	<style>
		tspan { white-space:pre }
		.shp0 { opacity: 0.702;fill: #b7b9cd } 
	</style>
	<g id="best game">
		<g id="Group 1 copy 4">
			<path id="basket" class="shp0" d="M20.95 8.77L20.97 8.77L18.47 20.02L18.45 20.01C18.32 20.57 17.85 21 17.25 21L4.75 21C4.15 21 3.68 20.57 3.55 20.01L3.53 20.02L1.03 8.77L1.05 8.77C1.03 8.68 1 8.59 1 8.5C1 7.81 1.56 7.25 2.25 7.25L4.75 7.25C4.75 3.8 7.55 1 11 1C14.45 1 17.25 3.8 17.25 7.25L19.75 7.25C20.44 7.25 21 7.81 21 8.5C21 8.59 20.97 8.68 20.95 8.77ZM11 3.5C8.93 3.5 7.25 5.18 7.25 7.25L14.75 7.25C14.75 5.18 13.07 3.5 11 3.5ZM16 12.25C15.31 12.25 14.75 11.69 14.75 11L14.75 9.75L7.25 9.75L7.25 11C7.25 11.69 6.69 12.25 6 12.25C5.31 12.25 4.75 11.69 4.75 11L4.75 9.75L3.81 9.75L5.75 18.5L16.25 18.5L18.19 9.75L17.25 9.75L17.25 11C17.25 11.69 16.69 12.25 16 12.25Z" />
		</g>
	</g>
</svg>