<svg xmlns="http://www.w3.org/2000/svg" viewBox="0 0 19 23" width="19" height="23">
	<style>
		tspan { white-space:pre }
		.shp0 { opacity: 0.702;fill: #b7b9cd } 
	</style>
	<g id="best game">
		<g id="Group 1 copy 3">
			<path id="card" class="shp0" d="M18.99 12.31C18.99 14.99 16.87 17.16 14.25 17.16C12.69 17.16 11.33 16.38 10.47 15.2L10.45 15.22L9.5 13.92L8.55 15.22L8.54 15.21C7.67 16.38 6.31 17.16 4.75 17.16C2.13 17.16 0.01 14.99 0.01 12.31C0.01 11.22 0.37 10.22 0.97 9.41L0.96 9.4C0.96 9.4 7.92 0.99 9.5 0.99C11.08 0.99 18.04 9.4 18.04 9.4L18.03 9.41C18.63 10.22 18.99 11.22 18.99 12.31ZM7.92 18.77L7.92 17.16C7.92 16.26 8.63 15.54 9.5 15.54C10.37 15.54 11.08 16.26 11.08 17.16L11.08 18.77C11.96 18.77 12.66 19.5 12.66 20.39C12.66 21.28 11.96 22.01 11.08 22.01L7.92 22.01C7.04 22.01 6.34 21.28 6.34 20.39C6.34 19.5 7.04 18.77 7.92 18.77Z" />
		</g>
	</g>
</svg>