<svg xmlns="http://www.w3.org/2000/svg" viewBox="0 0 20 19" width="20" height="19">
	<style>
		tspan { white-space:pre }
		.shp0 { fill: #ffdd3f } 
	</style>
	<g id="best game">
		<g id="game 1">
			<g id="stars">
				<path id="favourite" class="shp0" d="M5.33,18.3c1.72,-0.81 4.72,-2.24 4.72,-2.24c0,0 2.94,1.38 4.81,2.26c-0.61,-0.29 1.57,1.24 1.37,-0.88c-0.19,-2.04 -0.5,-5.31 -0.5,-5.31c0,0 2.15,-2.39 3.49,-3.88c-0.56,0.62 1.54,-1.08 -0.41,-1.45c-1.98,-0.37 -5.52,-0.63 -5.52,-0.63c0,0 -1.41,-3.26 -2.45,-5.05c0.48,0.84 -0.55,-1.85 -1.59,-0.04c-1.03,1.8 -2.54,5.11 -2.54,5.11c0,0 -3.44,0.27 -5.41,0.65c0.78,-0.15 -1.81,-0.08 -0.5,1.37c1.34,1.48 3.57,3.95 3.57,3.95c0,0 -0.3,3.28 -0.48,5.32c0.05,-0.53 -0.68,1.83 1.46,0.82z" />
			</g>
		</g>
	</g>
</svg>