<svg xmlns="http://www.w3.org/2000/svg" viewBox="0 0 24 24" width="24" height="24">
	<style>
		tspan { white-space:pre }
		.shp0 { fill: #ffffff } 
	</style>
	<g id="best game">
		<g id="Group 1">
			<path id="tooltip" class="shp0" d="M20.4 19L16.78 19L12.99 22.79L12.99 22.79C12.74 23.04 12.39 23.2 12 23.2C11.61 23.2 11.26 23.04 11.01 22.79L11.01 22.79L7.22 19L3.6 19C2.05 19 0.8 17.75 0.8 16.2L0.8 3.6C0.8 2.05 2.05 0.8 3.6 0.8L20.4 0.8C21.95 0.8 23.2 2.05 23.2 3.6L23.2 16.2C23.2 17.75 21.95 19 20.4 19ZM20.4 5C20.4 4.23 19.77 3.6 19 3.6L5 3.6C4.23 3.6 3.6 4.23 3.6 5L3.6 14.8C3.6 15.57 4.23 16.2 5 16.2L6.4 16.2L7.8 16.2C8.19 16.2 8.54 16.36 8.79 16.61L8.79 16.61L12 19.82L15.21 16.61L15.21 16.61C15.46 16.36 15.81 16.2 16.2 16.2L17.6 16.2L19 16.2C19.77 16.2 20.4 15.57 20.4 14.8L20.4 5ZM16.2 13.4L7.8 13.4C7.03 13.4 6.4 12.77 6.4 12C6.4 11.23 7.03 10.6 7.8 10.6L16.2 10.6C16.97 10.6 17.6 11.23 17.6 12C17.6 12.77 16.97 13.4 16.2 13.4ZM16.2 9.2L7.8 9.2C7.03 9.2 6.4 8.57 6.4 7.8C6.4 7.03 7.03 6.4 7.8 6.4L16.2 6.4C16.97 6.4 17.6 7.03 17.6 7.8C17.6 8.57 16.97 9.2 16.2 9.2Z" />
		</g>
	</g>
</svg>